
<svg version="1.0" xmlns="http://www.w3.org/2000/svg"
 width="200.000000pt" height="35.000000pt" viewBox="0 0 200.000000 35.000000"
 preserveAspectRatio="xMidYMid meet">

<g transform="translate(0.000000,35.000000) scale(0.100000,-0.100000)"
fill="#000000" stroke="none">
<path d="M390 631 c0 -5 9 -11 20 -14 19 -5 20 -14 20 -211 0 -174 -2 -208
-15 -212 -33 -13 -12 -24 45 -24 33 0 60 2 60 5 0 3 -9 14 -20 25 -19 19 -20
33 -20 230 l0 210 -45 0 c-25 0 -45 -4 -45 -9z"/>
<path d="M1160 632 c0 -4 9 -13 20 -20 19 -11 20 -23 20 -207 0 -184 -1 -196
-20 -207 -33 -21 -23 -28 40 -28 57 0 78 11 45 24 -12 4 -15 26 -15 106 0 94
2 103 25 126 19 19 34 24 57 22 46 -4 58 -34 58 -145 0 -82 -2 -94 -20 -105
-33 -21 -23 -28 40 -28 57 0 78 11 45 24 -12 4 -15 26 -15 109 0 124 -11 161
-50 177 -37 15 -70 7 -109 -26 l-31 -26 0 106 0 106 -45 0 c-25 0 -45 -3 -45
-8z"/>
<path d="M157 616 c-87 -32 -122 -102 -121 -236 1 -153 51 -215 174 -214 36 0
77 3 93 7 24 7 27 12 27 52 0 33 -4 45 -15 45 -8 0 -15 -4 -15 -9 0 -5 -12
-23 -26 -40 -46 -55 -130 -37 -160 34 -39 94 -25 250 28 311 48 54 122 46 148
-16 19 -46 40 -39 40 14 0 25 -4 47 -8 50 -22 14 -130 15 -165 2z"/>
<path d="M1570 580 c0 -25 4 -30 25 -30 21 0 25 5 25 30 0 25 -4 30 -25 30
-21 0 -25 -5 -25 -30z"/>
<path d="M975 528 c-4 -17 -19 -42 -33 -55 l-25 -23 27 0 26 0 0 -118 c0 -88
4 -123 15 -139 21 -30 66 -38 104 -19 46 24 49 38 7 30 -28 -5 -41 -2 -56 11
-18 16 -20 32 -20 127 l0 108 50 0 c38 0 50 4 50 15 0 11 -12 15 -50 15 l-50
0 0 40 c0 33 -3 40 -19 40 -14 0 -21 -10 -26 -32z"/>
<path d="M2900 536 c0 -14 -12 -38 -26 -55 -25 -30 -25 -31 -5 -31 20 0 21 -5
21 -97 0 -126 11 -167 50 -183 32 -13 89 -1 110 25 11 13 6 14 -32 9 -65 -9
-73 5 -73 135 l0 106 53 3 c37 2 52 7 52 18 0 10 -14 14 -55 14 l-55 0 0 40
c0 33 -3 40 -20 40 -14 0 -20 -7 -20 -24z"/>
<path d="M670 472 c-54 -27 -80 -74 -80 -144 0 -112 42 -162 135 -162 95 0
139 53 139 164 0 83 -20 122 -74 144 -52 20 -77 20 -120 -2z m92 -13 c29 -16
48 -70 48 -141 0 -74 -25 -124 -66 -134 -91 -23 -142 180 -64 258 31 30 50 34
82 17z"/>
<path d="M1880 479 c-14 -6 -35 -20 -47 -31 l-23 -21 0 26 c0 25 -3 27 -45 27
-25 0 -45 -4 -45 -10 0 -5 6 -10 14 -10 22 0 26 -23 26 -140 0 -83 -4 -112
-15 -124 -24 -23 -19 -26 47 -26 l62 0 -22 20 c-20 19 -22 31 -22 116 0 90 1
96 26 119 34 32 78 33 98 3 22 -31 23 -210 1 -232 -24 -23 -19 -26 45 -26 33
0 60 4 60 10 0 6 -6 10 -14 10 -21 0 -26 23 -26 131 0 110 -13 152 -52 163
-29 7 -38 7 -68 -5z"/>
<path d="M2173 479 c-44 -13 -63 -44 -63 -101 0 -35 6 -54 20 -68 l20 -20 -20
-20 c-22 -22 -27 -76 -7 -83 8 -3 5 -12 -10 -29 -33 -35 -31 -84 5 -101 113
-58 252 -13 252 81 0 60 -25 76 -124 81 -89 3 -111 13 -96 41 7 13 25 19 76
22 58 4 70 8 90 32 27 30 33 103 12 124 -9 9 -5 12 20 12 22 0 32 5 32 15 0
11 -13 15 -52 15 -29 0 -69 2 -88 5 -19 2 -49 0 -67 -6z m92 -34 c51 -50 24
-145 -40 -145 -43 0 -65 29 -65 87 0 76 57 107 105 58z m50 -291 c19 -20 13
-62 -12 -81 -46 -36 -138 -25 -162 19 -13 23 -13 28 2 52 16 24 23 26 87 26
50 0 73 -4 85 -16z"/>
<path d="M2642 479 c-23 -7 -38 -20 -50 -45 -15 -32 -15 -38 -1 -62 8 -15 43
-43 78 -62 78 -42 92 -70 56 -106 -33 -33 -70 -31 -105 6 -15 17 -31 30 -34
30 -3 0 -6 -15 -6 -34 0 -33 1 -34 50 -40 104 -14 160 16 160 84 0 46 -13 61
-90 100 -62 31 -78 56 -60 90 22 41 101 35 115 -9 11 -35 35 -26 35 13 0 31
-3 34 -37 40 -48 7 -70 7 -111 -5z"/>
<path d="M3174 472 c-58 -28 -77 -72 -72 -169 3 -70 6 -77 35 -104 41 -36 90
-45 145 -28 64 21 88 63 88 153 0 39 -6 82 -13 95 -31 61 -114 84 -183 53z
m95 -18 c73 -52 66 -242 -11 -268 -35 -12 -75 13 -95 62 -30 71 -2 203 45 215
31 8 37 7 61 -9z"/>
<path d="M3595 474 c-16 -8 -38 -23 -47 -31 -17 -15 -18 -14 -18 10 0 25 -3
27 -40 27 -44 0 -49 -6 -22 -26 14 -11 17 -29 17 -129 0 -100 -3 -118 -17
-129 -30 -22 -21 -26 50 -26 l67 0 -25 20 c-24 18 -25 24 -25 114 0 86 2 97
24 120 29 31 67 34 76 6 3 -11 15 -20 26 -20 16 0 19 7 19 40 0 37 -2 40 -27
40 -16 0 -41 -7 -58 -16z"/>
<path d="M3811 473 c-60 -31 -76 -64 -76 -153 0 -95 19 -128 84 -149 49 -15
101 -5 143 28 31 26 15 39 -21 18 -36 -21 -90 -22 -118 -2 -24 17 -48 87 -39
111 4 11 29 14 107 14 l101 0 -7 36 c-14 76 -36 99 -102 109 -26 4 -49 0 -72
-12z m94 -28 c16 -15 25 -36 25 -55 l0 -30 -74 0 -75 0 10 33 c9 34 51 77 75
77 8 0 26 -11 39 -25z"/>
<path d="M1530 471 c0 -5 9 -11 20 -14 19 -5 20 -14 20 -131 0 -103 -3 -128
-15 -132 -33 -13 -12 -24 45 -24 63 0 73 7 40 28 -18 11 -20 23 -20 147 l0
135 -45 0 c-25 0 -45 -4 -45 -9z"/>
</g>
</svg>
